<mxfile host="app.diagrams.net" modified="2023-02-07T05:32:31.002Z" agent="5.0 (X11; Linux x86_64) AppleWebKit/537.36 (KHTML, like Gecko) Chrome/102.0.0.0 Safari/537.36" etag="nFzwnNL3qQGZB9rOxBOj" version="20.8.16" type="github">
  <diagram id="prtHgNgQTEPvFCAcTncT" name="Page-1">
    <mxGraphModel dx="1276" dy="537" grid="0" gridSize="10" guides="1" tooltips="1" connect="1" arrows="1" fold="1" page="0" pageScale="1" pageWidth="827" pageHeight="1169" math="0" shadow="0">
      <root>
        <mxCell id="0" />
        <mxCell id="1" parent="0" />
        <mxCell id="ZOoQiJ9sVfXqPV81p9z5-15" style="edgeStyle=orthogonalEdgeStyle;curved=1;rounded=1;orthogonalLoop=1;jettySize=auto;html=1;startArrow=none;startFill=0;strokeColor=#DAE8FC;" parent="1" source="ZOoQiJ9sVfXqPV81p9z5-1" target="ZOoQiJ9sVfXqPV81p9z5-5" edge="1">
          <mxGeometry relative="1" as="geometry" />
        </mxCell>
        <mxCell id="ZOoQiJ9sVfXqPV81p9z5-16" value="1 将设备录入到系统" style="edgeLabel;html=1;align=center;verticalAlign=middle;resizable=0;points=[];fontColor=#B0BCCC;" parent="ZOoQiJ9sVfXqPV81p9z5-15" vertex="1" connectable="0">
          <mxGeometry x="-0.6836" y="-1" relative="1" as="geometry">
            <mxPoint x="61" y="8" as="offset" />
          </mxGeometry>
        </mxCell>
        <mxCell id="ZOoQiJ9sVfXqPV81p9z5-1" value="左邻实施人员" style="ellipse;whiteSpace=wrap;html=1;aspect=fixed;fillColor=#dae8fc;strokeColor=#6c8ebf;" parent="1" vertex="1">
          <mxGeometry x="200" y="40" width="80" height="80" as="geometry" />
        </mxCell>
        <mxCell id="ZOoQiJ9sVfXqPV81p9z5-11" style="edgeStyle=orthogonalEdgeStyle;curved=1;rounded=1;orthogonalLoop=1;jettySize=auto;html=1;strokeColor=#FF3333;" parent="1" source="ZOoQiJ9sVfXqPV81p9z5-2" target="ZOoQiJ9sVfXqPV81p9z5-4" edge="1">
          <mxGeometry relative="1" as="geometry">
            <Array as="points">
              <mxPoint x="480" y="330" />
              <mxPoint x="480" y="330" />
            </Array>
          </mxGeometry>
        </mxCell>
        <mxCell id="ZOoQiJ9sVfXqPV81p9z5-20" value="2.3 同步信息给设备" style="edgeLabel;html=1;align=center;verticalAlign=middle;resizable=0;points=[];" parent="ZOoQiJ9sVfXqPV81p9z5-11" vertex="1" connectable="0">
          <mxGeometry x="-0.1474" y="-3" relative="1" as="geometry">
            <mxPoint x="73" y="-9" as="offset" />
          </mxGeometry>
        </mxCell>
        <mxCell id="ZOoQiJ9sVfXqPV81p9z5-21" style="edgeStyle=orthogonalEdgeStyle;curved=1;rounded=1;orthogonalLoop=1;jettySize=auto;html=1;startArrow=none;startFill=0;entryX=1;entryY=0;entryDx=0;entryDy=0;strokeColor=#FF3333;" parent="1" source="ZOoQiJ9sVfXqPV81p9z5-2" target="ZOoQiJ9sVfXqPV81p9z5-2" edge="1">
          <mxGeometry relative="1" as="geometry">
            <mxPoint x="630" y="210" as="targetPoint" />
            <Array as="points">
              <mxPoint x="500" y="190" />
              <mxPoint x="520" y="190" />
              <mxPoint x="520" y="212" />
            </Array>
          </mxGeometry>
        </mxCell>
        <mxCell id="ZOoQiJ9sVfXqPV81p9z5-22" value="2.2 更新权限信息" style="edgeLabel;html=1;align=center;verticalAlign=middle;resizable=0;points=[];" parent="ZOoQiJ9sVfXqPV81p9z5-21" vertex="1" connectable="0">
          <mxGeometry x="-0.3942" y="-4" relative="1" as="geometry">
            <mxPoint x="65" y="6" as="offset" />
          </mxGeometry>
        </mxCell>
        <mxCell id="ZOoQiJ9sVfXqPV81p9z5-40" style="edgeStyle=orthogonalEdgeStyle;curved=1;rounded=1;orthogonalLoop=1;jettySize=auto;html=1;startArrow=none;startFill=0;strokeColor=#39FF12;" parent="1" source="ZOoQiJ9sVfXqPV81p9z5-2" target="ZOoQiJ9sVfXqPV81p9z5-5" edge="1">
          <mxGeometry relative="1" as="geometry">
            <Array as="points">
              <mxPoint x="360" y="270" />
              <mxPoint x="360" y="270" />
            </Array>
          </mxGeometry>
        </mxCell>
        <mxCell id="ZOoQiJ9sVfXqPV81p9z5-41" value="4.7 上报开门记录" style="edgeLabel;html=1;align=center;verticalAlign=middle;resizable=0;points=[];" parent="ZOoQiJ9sVfXqPV81p9z5-40" vertex="1" connectable="0">
          <mxGeometry x="0.0752" y="-2" relative="1" as="geometry">
            <mxPoint y="12" as="offset" />
          </mxGeometry>
        </mxCell>
        <mxCell id="ZOoQiJ9sVfXqPV81p9z5-2" value="通通中间件" style="ellipse;whiteSpace=wrap;html=1;aspect=fixed;fillColor=#ffcd28;strokeColor=#d79b00;gradientColor=#ffa500;" parent="1" vertex="1">
          <mxGeometry x="440" y="200" width="80" height="80" as="geometry" />
        </mxCell>
        <mxCell id="ZOoQiJ9sVfXqPV81p9z5-29" style="edgeStyle=orthogonalEdgeStyle;curved=1;rounded=1;orthogonalLoop=1;jettySize=auto;html=1;startArrow=none;startFill=0;strokeColor=#39FF12;" parent="1" source="ZOoQiJ9sVfXqPV81p9z5-3" target="ZOoQiJ9sVfXqPV81p9z5-5" edge="1">
          <mxGeometry relative="1" as="geometry" />
        </mxCell>
        <mxCell id="ZOoQiJ9sVfXqPV81p9z5-30" value="4.1 获取二维码" style="edgeLabel;html=1;align=center;verticalAlign=middle;resizable=0;points=[];" parent="ZOoQiJ9sVfXqPV81p9z5-29" vertex="1" connectable="0">
          <mxGeometry x="-0.1612" y="-1" relative="1" as="geometry">
            <mxPoint x="49" as="offset" />
          </mxGeometry>
        </mxCell>
        <mxCell id="ZOoQiJ9sVfXqPV81p9z5-34" style="edgeStyle=orthogonalEdgeStyle;curved=1;rounded=1;orthogonalLoop=1;jettySize=auto;html=1;startArrow=none;startFill=0;strokeColor=#39FF12;" parent="1" source="ZOoQiJ9sVfXqPV81p9z5-3" target="ZOoQiJ9sVfXqPV81p9z5-4" edge="1">
          <mxGeometry relative="1" as="geometry" />
        </mxCell>
        <mxCell id="ZOoQiJ9sVfXqPV81p9z5-35" value="4.4 刷二维码" style="edgeLabel;html=1;align=center;verticalAlign=middle;resizable=0;points=[];" parent="ZOoQiJ9sVfXqPV81p9z5-34" vertex="1" connectable="0">
          <mxGeometry x="-0.1138" y="-1" relative="1" as="geometry">
            <mxPoint y="9" as="offset" />
          </mxGeometry>
        </mxCell>
        <mxCell id="ZOoQiJ9sVfXqPV81p9z5-3" value="用户" style="ellipse;whiteSpace=wrap;html=1;aspect=fixed;fillColor=#fa6800;fontColor=#000000;strokeColor=#C73500;" parent="1" vertex="1">
          <mxGeometry x="200" y="360" width="80" height="80" as="geometry" />
        </mxCell>
        <mxCell id="ZOoQiJ9sVfXqPV81p9z5-38" style="edgeStyle=orthogonalEdgeStyle;curved=1;rounded=1;orthogonalLoop=1;jettySize=auto;html=1;startArrow=none;startFill=0;strokeColor=#39FF12;" parent="1" source="ZOoQiJ9sVfXqPV81p9z5-4" target="ZOoQiJ9sVfXqPV81p9z5-2" edge="1">
          <mxGeometry relative="1" as="geometry">
            <mxPoint x="480" y="280" as="targetPoint" />
            <Array as="points">
              <mxPoint x="470" y="320" />
              <mxPoint x="470" y="320" />
            </Array>
          </mxGeometry>
        </mxCell>
        <mxCell id="ZOoQiJ9sVfXqPV81p9z5-39" value="4.6 上报开门记录" style="edgeLabel;html=1;align=center;verticalAlign=middle;resizable=0;points=[];" parent="ZOoQiJ9sVfXqPV81p9z5-38" vertex="1" connectable="0">
          <mxGeometry x="-0.0049" y="-3" relative="1" as="geometry">
            <mxPoint x="-53" y="9" as="offset" />
          </mxGeometry>
        </mxCell>
        <mxCell id="ZOoQiJ9sVfXqPV81p9z5-4" value="门禁设备" style="ellipse;whiteSpace=wrap;html=1;aspect=fixed;fillColor=#f5f5f5;gradientColor=#b3b3b3;strokeColor=#666666;" parent="1" vertex="1">
          <mxGeometry x="440" y="360" width="80" height="80" as="geometry" />
        </mxCell>
        <mxCell id="ZOoQiJ9sVfXqPV81p9z5-17" style="edgeStyle=orthogonalEdgeStyle;curved=1;rounded=1;orthogonalLoop=1;jettySize=auto;html=1;startArrow=none;startFill=0;strokeColor=#FF3333;" parent="1" source="ZOoQiJ9sVfXqPV81p9z5-5" target="ZOoQiJ9sVfXqPV81p9z5-2" edge="1">
          <mxGeometry relative="1" as="geometry">
            <Array as="points">
              <mxPoint x="360" y="210" />
              <mxPoint x="360" y="210" />
            </Array>
          </mxGeometry>
        </mxCell>
        <mxCell id="ZOoQiJ9sVfXqPV81p9z5-19" value="2.1 增删权限" style="edgeLabel;html=1;align=center;verticalAlign=middle;resizable=0;points=[];" parent="ZOoQiJ9sVfXqPV81p9z5-17" vertex="1" connectable="0">
          <mxGeometry x="0.1966" y="-1" relative="1" as="geometry">
            <mxPoint x="-26" y="-11" as="offset" />
          </mxGeometry>
        </mxCell>
        <mxCell id="ZOoQiJ9sVfXqPV81p9z5-23" style="edgeStyle=orthogonalEdgeStyle;curved=1;rounded=1;orthogonalLoop=1;jettySize=auto;html=1;startArrow=none;startFill=0;strokeColor=#1B08C9;" parent="1" source="ZOoQiJ9sVfXqPV81p9z5-5" target="ZOoQiJ9sVfXqPV81p9z5-2" edge="1">
          <mxGeometry relative="1" as="geometry">
            <Array as="points">
              <mxPoint x="380" y="240" />
              <mxPoint x="380" y="240" />
            </Array>
          </mxGeometry>
        </mxCell>
        <mxCell id="ZOoQiJ9sVfXqPV81p9z5-24" value="3.1 变更黑名单" style="edgeLabel;html=1;align=center;verticalAlign=middle;resizable=0;points=[];" parent="ZOoQiJ9sVfXqPV81p9z5-23" vertex="1" connectable="0">
          <mxGeometry x="-0.2596" relative="1" as="geometry">
            <mxPoint x="12" y="-10" as="offset" />
          </mxGeometry>
        </mxCell>
        <mxCell id="ZOoQiJ9sVfXqPV81p9z5-27" style="edgeStyle=orthogonalEdgeStyle;curved=1;rounded=1;orthogonalLoop=1;jettySize=auto;html=1;startArrow=none;startFill=0;strokeColor=#39FF12;" parent="1" source="ZOoQiJ9sVfXqPV81p9z5-5" target="ZOoQiJ9sVfXqPV81p9z5-2" edge="1">
          <mxGeometry relative="1" as="geometry">
            <Array as="points">
              <mxPoint x="360" y="260" />
              <mxPoint x="360" y="260" />
            </Array>
          </mxGeometry>
        </mxCell>
        <mxCell id="ZOoQiJ9sVfXqPV81p9z5-28" value="4.2 获取二维码" style="edgeLabel;html=1;align=center;verticalAlign=middle;resizable=0;points=[];" parent="ZOoQiJ9sVfXqPV81p9z5-27" vertex="1" connectable="0">
          <mxGeometry x="-0.0826" y="2" relative="1" as="geometry">
            <mxPoint y="-8" as="offset" />
          </mxGeometry>
        </mxCell>
        <mxCell id="ZOoQiJ9sVfXqPV81p9z5-5" value="左邻门禁平台" style="ellipse;whiteSpace=wrap;html=1;aspect=fixed;fillColor=#fad7ac;strokeColor=#b46504;" parent="1" vertex="1">
          <mxGeometry x="200" y="200" width="80" height="80" as="geometry" />
        </mxCell>
        <mxCell id="ZOoQiJ9sVfXqPV81p9z5-7" value="" style="endArrow=none;html=1;rounded=0;" parent="1" edge="1">
          <mxGeometry width="50" height="50" relative="1" as="geometry">
            <mxPoint x="80" y="160" as="sourcePoint" />
            <mxPoint x="640" y="160" as="targetPoint" />
          </mxGeometry>
        </mxCell>
        <mxCell id="ZOoQiJ9sVfXqPV81p9z5-8" value="实施阶段" style="text;html=1;strokeColor=none;fillColor=none;align=center;verticalAlign=middle;whiteSpace=wrap;rounded=0;" parent="1" vertex="1">
          <mxGeometry x="80" y="90" width="60" height="30" as="geometry" />
        </mxCell>
        <mxCell id="ZOoQiJ9sVfXqPV81p9z5-9" value="运行阶段" style="text;html=1;strokeColor=none;fillColor=none;align=center;verticalAlign=middle;whiteSpace=wrap;rounded=0;" parent="1" vertex="1">
          <mxGeometry x="80" y="200" width="60" height="30" as="geometry" />
        </mxCell>
        <mxCell id="ZOoQiJ9sVfXqPV81p9z5-25" style="edgeStyle=orthogonalEdgeStyle;curved=1;rounded=1;orthogonalLoop=1;jettySize=auto;html=1;startArrow=none;startFill=0;entryX=1;entryY=0.5;entryDx=0;entryDy=0;strokeColor=#1B08C9;" parent="1" source="ZOoQiJ9sVfXqPV81p9z5-2" target="ZOoQiJ9sVfXqPV81p9z5-2" edge="1">
          <mxGeometry relative="1" as="geometry">
            <Array as="points">
              <mxPoint x="540" y="230" />
              <mxPoint x="540" y="240" />
            </Array>
          </mxGeometry>
        </mxCell>
        <mxCell id="ZOoQiJ9sVfXqPV81p9z5-26" value="3.2 更新黑名单" style="edgeLabel;html=1;align=center;verticalAlign=middle;resizable=0;points=[];" parent="ZOoQiJ9sVfXqPV81p9z5-25" vertex="1" connectable="0">
          <mxGeometry x="0.0664" y="-2" relative="1" as="geometry">
            <mxPoint x="52" y="-7" as="offset" />
          </mxGeometry>
        </mxCell>
        <mxCell id="ZOoQiJ9sVfXqPV81p9z5-32" style="edgeStyle=orthogonalEdgeStyle;curved=1;rounded=1;orthogonalLoop=1;jettySize=auto;html=1;entryX=1;entryY=1;entryDx=0;entryDy=0;startArrow=none;startFill=0;exitX=0.998;exitY=0.615;exitDx=0;exitDy=0;exitPerimeter=0;strokeColor=#39FF12;" parent="1" source="ZOoQiJ9sVfXqPV81p9z5-2" target="ZOoQiJ9sVfXqPV81p9z5-2" edge="1">
          <mxGeometry relative="1" as="geometry">
            <Array as="points">
              <mxPoint x="530" y="249" />
              <mxPoint x="530" y="268" />
            </Array>
          </mxGeometry>
        </mxCell>
        <mxCell id="ZOoQiJ9sVfXqPV81p9z5-33" value="4.3 根据权限信息和黑名单,生成二维码" style="edgeLabel;html=1;align=center;verticalAlign=middle;resizable=0;points=[];" parent="ZOoQiJ9sVfXqPV81p9z5-32" vertex="1" connectable="0">
          <mxGeometry x="0.2212" y="-1" relative="1" as="geometry">
            <mxPoint x="112" y="-7" as="offset" />
          </mxGeometry>
        </mxCell>
        <mxCell id="ZOoQiJ9sVfXqPV81p9z5-36" style="edgeStyle=orthogonalEdgeStyle;curved=1;rounded=1;orthogonalLoop=1;jettySize=auto;html=1;entryX=0.5;entryY=1;entryDx=0;entryDy=0;startArrow=none;startFill=0;strokeColor=#39FF12;" parent="1" source="ZOoQiJ9sVfXqPV81p9z5-4" target="ZOoQiJ9sVfXqPV81p9z5-4" edge="1">
          <mxGeometry relative="1" as="geometry">
            <Array as="points">
              <mxPoint x="510" y="460" />
              <mxPoint x="480" y="460" />
            </Array>
          </mxGeometry>
        </mxCell>
        <mxCell id="ZOoQiJ9sVfXqPV81p9z5-37" value="4.5 开门" style="edgeLabel;html=1;align=center;verticalAlign=middle;resizable=0;points=[];" parent="ZOoQiJ9sVfXqPV81p9z5-36" vertex="1" connectable="0">
          <mxGeometry x="-0.0864" y="-2" relative="1" as="geometry">
            <mxPoint x="34" y="-8" as="offset" />
          </mxGeometry>
        </mxCell>
      </root>
    </mxGraphModel>
  </diagram>
</mxfile>
